<svg width="17" height="30" viewBox="0 0 17 30" fill="none" xmlns="http://www.w3.org/2000/svg">
<path class="socIcon" d="M16.3426 26.1497C16.7637 26.574 17 27.147 17 27.7441C17 28.3412 16.7637 28.9142 16.3426 29.3385C16.1358 29.548 15.8892 29.7144 15.6173 29.828C15.3455 29.9415 15.0537 30 14.7589 30C14.4642 30 14.1724 29.9415 13.9005 29.828C13.6286 29.7144 13.3821 29.548 13.1753 29.3385L0.656395 16.5961C0.235807 16.1708 0 15.5974 0 15C0 14.4026 0.235807 13.8292 0.656395 13.4039L13.1753 0.661457C13.3821 0.451963 13.6286 0.285596 13.9005 0.172038C14.1724 0.0584801 14.4642 0 14.7589 0C15.0537 0 15.3455 0.0584801 15.6173 0.172038C15.8892 0.285596 16.1358 0.451963 16.3426 0.661457C16.7637 1.08577 17 1.65877 17 2.2559C17 2.85302 16.7637 3.42602 16.3426 3.85034L6.07579 15.0049L16.3426 26.1497Z"/>
</svg>
